
<svg xmlns="http://www.w3.org/2000/svg" version="1.1" xmlns:xlink="http://www.w3.org/1999/xlink" preserveAspectRatio="none" x="0px" y="0px" width="1920px" height="1080px" viewBox="0 0 1920 1080">
<defs/>

<g id="Capa_1">
<g transform="matrix( 1, 0, 0, 1, 0,0) ">
<g>
<g>
<path fill="#3EA6BD" fill-opacity="0.996078431372549" stroke="none" d="
M 1147.2 485.95
L 1147.2 443.85 1126.15 443.85 1126.15 507 1147.2 485.95
M 726.6 443.8
L 726.6 485.85 747.6 506.85 747.6 443.8 726.6 443.8
M 978.95 359.7
L 1021 359.7 1063.05 317.6 936.9 191.45 810.7 317.65 852.75 359.7 894.8 359.7 894.8 581.5 809.85 496.55 809.85 443.8 789.65 443.8 789.65 506.05 894.8 611.2 894.8 792.65 809.85 707.7 809.85 569.1 789.65 548.9 789.65 717.2 936.9 864.45 1084.1 717.25 1084.1 692.75 1083.45 693.4 1084.1 692.75 1084.1 549.05 1073.6 559.55 1073.6 559.6 1063.1 570.1 1063.1 708.45 978.95 792.6 978.95 612 1084.1 506.85 1084.1 443.85 1063.1 443.85 1063.1 498.15 978.95 582.3 978.95 359.7 Z"/>

<path fill="#666666" stroke="none" d="
M 1147.2 443.85
L 1168.25 422.8 1105.15 359.7 1042.05 422.8 1063.1 443.85 1084.1 443.85 1084.1 506.85 1084.1 549.05 1084.1 692.75 1083.45 693.4 1084.1 692.75 1084.1 717.25 1168.25 633.1 1168.25 603.3 1126.15 645.4 1126.15 507 1126.15 443.85 1147.2 443.85
M 1105.15 528
L 1105.1 527.95 1105.2 527.95 1105.15 528
M 789.65 443.8
L 809.85 443.8 831.3 422.35 768.65 359.7 705.55 422.75 726.6 443.8 747.6 443.8 747.6 506.85 747.6 645.45 705.6 603.45 705.6 633.1 747.6 675.1 747.6 675.15 789.65 717.2 789.65 548.9 789.65 506.05 789.65 443.8
M 768.6 527.95
L 768.65 527.9 768.65 527.95 768.6 527.95 Z"/>
</g>
</g>
</g>
</g>
</svg>
